<?xml version="1.0" encoding="utf-8"?>
<!-- Generator: Adobe Illustrator 12.0.0, SVG Export Plug-In . SVG Version: 6.00 Build 51448)  -->
<!DOCTYPE svg PUBLIC "-//W3C//DTD SVG 1.1//EN" "http://www.w3.org/Graphics/SVG/1.1/DTD/svg11.dtd" [
	<!ENTITY ns_svg "http://www.w3.org/2000/svg">
	<!ENTITY ns_xlink "http://www.w3.org/1999/xlink">
]>
<svg  version="1.1" xmlns="&ns_svg;" xmlns:xlink="&ns_xlink;" width="621.537" height="1002.305" viewBox="0 0 621.537 1002.305"
	 overflow="visible" enable-background="new 0 0 621.537 1002.305" xml:space="preserve">
<g id="Layer_3" display="none">
	<image display="inline" width="2550" height="3508" xlink:href="D1076AA5.jpg"  transform="matrix(0.24 0 0 0.24 9.5371 0)">
	</image>
	<path display="inline" stroke="#000000" stroke-width="0.2" d="M302.763,804.238c0.276,0.093,1.187,0.39,1.503,0.39
		c0.375,0-1.209,0.375-1.667,0.375"/>
</g>
<g id="Layer_13">
	<g>
		<g>
			<path fill="#FFFFFF" stroke="#000000" stroke-width="2" d="M579.145,670.037c0,158.622-128.596,287.217-287.223,287.217
				c-158.628,0-287.221-128.595-287.221-287.217c0-158.628,128.592-287.224,287.221-287.224
				C450.549,382.813,579.145,511.409,579.145,670.037z"/>
			<path fill="#F75A03" stroke="#000000" stroke-width="2" d="M568.924,668.901c0,152.972-124.02,276.991-276.997,276.991
				c-152.983,0-276.997-124.02-276.997-276.991c0-152.984,124.014-277,276.997-277C444.905,391.901,568.924,515.917,568.924,668.901
				z"/>
		</g>
		<g>
			<g>
				<path fill="#00ADEF" d="M251.803,562.467c13.64,17.924,22.891,69.788,19.394,94.979c-0.877,6.333,50.278,6.719,47.653,8.718
					L214.869,867.302c-64.414,49.096-160.229-36.362-92.611-155.972L46.676,585.836c-17.07-22.44-20.325-48.684-7.267-58.62
					l51.563-39.235c13.058-9.938,43.267,10.943,60.336,33.378L251.803,562.467z"/>
				<path fill="#00ADEF" d="M421.862,765.543c-9.787,20.36-150.146,39.162-170.507,29.367l-17.136-16.435
					c-20.357-9.786,90.391-99.006,100.176-119.369l7.018-14.593c9.79-20.36,34.236-28.932,54.599-19.141l51.228,26.661
					c20.362,9.787,60.324,74.729,77.102,112.55L421.862,765.543z"/>
				<path fill="#00ADEF" d="M97.826,795.798c0,0,0.718-20.879,2.076-19.777c13.921,11.331,92.884,96.578,106.669,96.774
					c8.634,0.122,13.443,48.624-7.719,56.773c-15.897,6.119-58.48-27.52-58.48-27.52l-40.203-35.513
					C100.17,866.537,95.271,798.995,97.826,795.798"/>
				<path fill="#00ADEF" d="M293.64,630.453c0,0-10.228,4.687-16.336,9.946c-6.107,5.256-7.386,8.095-7.386,8.095l-0.713,10.514
					c0,0,32.673,7.106,35.371,6.394C307.276,664.687,304.009,653.465,293.64,630.453z"/>
			</g>
			<polygon fill="#00ADEF" points="268.921,620.229 277.164,625.627 272.758,641.396 271.336,642.102 			"/>
			<polygon fill="#00ADEF" points="221.053,550.339 245.768,556.587 241.082,563.122 			"/>
		</g>
		<path opacity="0.19" fill="#FFFFFF" d="M345.102,858.563c-40.051,63.753-118.705,86.419-175.681,50.625
			c-56.973-35.798-70.688-116.494-30.635-180.247c40.052-63.751,118.709-86.417,175.681-50.622
			C371.443,714.114,385.158,794.813,345.102,858.563z"/>
		<path fill="none" stroke="#000000" stroke-width="5" d="M292.362,629.884c0,0-39.206,20.6-47.729,52.134"/>
		<path d="M395.292,443.832c0,0,10.653-9.801,12.784-11.079c2.13-1.279,13.636-1.705,17.896,3.835
			c4.261,5.539,5.967,7.244,6.82,12.785c0.85,5.54,2.127,10.652,2.127,10.652S414.893,434.031,395.292,443.832z"/>
		<path d="M323.044,385.422c0,0,14.488-5.116,19.604-2.131c5.11,2.98,10.366,4.97,11.931,8.521c1.566,3.554,0.852,5.967,0.852,5.967
			s7.674,5.541,9.804,2.131c2.131-3.411,0.425-19.604-13.639-22.16C337.533,375.194,331.142,376.044,323.044,385.422z"/>
		<path fill="#C67832" stroke="#000000" stroke-width="1.5" d="M182.853,407.466c0,0,0.261-0.443,0.743-1.234
			c3.861-6.333,11.948-26.545,35.924-42.261c14.765-9.683,46.484-21.375,53.376-23.415c7.104-2.099,13.874-1.662,10.533-2.297
			c5.181,0.98,2.217,5.949-0.584,10.79c-2.808,4.844,12.621-9.781,17.716-10.667c3.354-0.582,8.876-0.392,8.43,6.617
			c-0.414,6.533-4.845,13.199-4.845,13.199s9.234-3.51,13.298-1.426c4.064,2.075-12.962,35.685-42.906,64.254
			c-16.549,15.794-27.909,23.144-32.123,25.123c-4.217,1.979-32.576,13.358-45.207,8.571
			C184.578,449.936,166.06,430.807,182.853,407.466"/>
		<path fill="#CC6600" stroke="#000000" stroke-width="4" d="M182.634,405.314c0,0,0.267-0.432,0.765-1.217
			c3.995-6.242,12.515-26.291,36.815-41.496c14.964-9.364,46.874-19.627,53.308-22.829c3.563-1.774,9.057-3.176,11.497-2.364
			c2.507,0.834,1.722,6.832-1.183,11.613c-2.91,4.781,12.828-9.517,17.933-10.291c3.373-0.513,8.891-0.21,8.294,6.794
			c-0.552,6.519-5.124,13.091-5.124,13.091s9.308-3.309,13.324-1.146c4.018,2.164-13.711,35.407-44.249,63.335
			c-16.887,15.443-28.391,22.547-32.655,24.437c-4.252,1.893-32.844,12.666-45.376,7.62
			C183.458,447.808,165.353,428.295,182.634,405.314"/>
		<path fill="#C67832" stroke="#000000" stroke-width="2" d="M181.363,402.767c0,0-18.467-2.091-29.775,0.436
			c-10.605,2.375-88.285,21.733-137.131,79.81c-3.257,3.874-5.257,7.896-6.869,12.084c0,0-1.366,3.394-2.47,8.136
			c-2.078,8.917-3.243,22.607,7.25,27.567c16.083,7.598,28.358,7.104,44.795,5.035c16.436-2.078,48.083-9.671,62.874-19.104
			c8.793-5.609,28.387-26.501,35.648-32.346c7.258-5.848,37.961-30.404,37.961-30.404S161.174,440.16,181.363,402.767z"/>
		<path fill="#CC6600" stroke="#000000" stroke-width="4" d="M183.856,401.366c0,0-19.843-0.282-31.228,1.915
			c-10.667,2.058-88.883,19.121-139.417,75.738c-3.37,3.772-5.487,7.734-7.222,11.876c0,0-1.464,3.349-2.706,8.06
			c-2.341,8.849-2.411,24.959,7.934,30.226c15.852,8.071,28.414,7.321,44.904,5.734c16.493-1.593,36.255-2.837,61.631-19.088
			c17.738-11.362,27.352-20.863,36.528-28.181c7.28-5.814,39.967-34.267,39.967-34.267S160.268,439.333,183.856,401.366z"/>
		<polygon fill="#3F3F3F" stroke="#000000" stroke-width="3" points="80.039,885.286 170.059,942.177 213.738,870.158 		"/>
		<path fill="#CC6600" stroke="#000000" d="M265.728,552.682c0,0,1.065,4.687-0.215,12.571c-1.277,7.884-0.424,23.864,1.493,28.551
			c1.915,4.688,10.651,25.569,10.866,26.848c0.214,1.278,0.853,5.541,0.853,5.541l-3.408,12.571l18.323-8.311
			c0,0,28.978-5.325,37.926-8.096c8.952-2.769,29.405-13.425,29.405-13.425l28.553-22.37l-55.614,9.374
			C333.91,595.936,279.58,577.185,265.728,552.682z"/>
		<path fill="#B8D1ED" stroke="#000000" stroke-width="5" d="M278.725,626.193c0,0-15.911-15.056-30.114-10.511
			c-14.206,4.543-27.842,10.795-27.842,10.795s8.528-50.569,24.999-68.751c16.484-18.185,17.046-8.527,18.751-4.548
			c1.704,3.979,0.57,13.071,0.57,13.071S257.136,583.008,278.725,626.193z"/>
		<path fill="#B8D1ED" stroke="#000000" stroke-width="5" d="M390.643,587.678c0,0-26.753,22.826-42.396,30.247
			c-15.635,7.421-51.21,13.901-51.21,13.901s8.71,19.568,11.654,37.084c2.942,17.512-1.712,29.631-1.712,29.631
			s13.062-15.284,24.093-24.232c11.03-8.953,27.465-17.825,43.203-30.086c12.318-9.598,21.272-23.555,21.272-23.555
			s1.074-1.751,1.706-14.851C397.892,592.717,390.643,587.678,390.643,587.678z"/>
		<path fill="#CC6600" stroke="#000000" stroke-width="5" d="M285.132,430.745c0,0,6.774-25.128,13.988-35.87
			c7.543-11.234,18.54-13.849,32.744-25.781c14.203-11.932,39.772-13.637,59.091-13.637c19.32,0,45.451,10.228,57.954,20.456
			c12.5,10.228,30.683,46.59,33.524,64.208c2.839,17.611-5.682,40.301-5.682,40.301s-13.24,25.722-14.946,33.679
			c-1.703,7.954,0.571,29.544-13.065,44.033c-12.546,13.331-32.955,16.192-38.637,15.623c-5.681-0.567-66.574,32.418-109.333,17.75
			c-25.362-8.702-33.667-18.122-42.763-43.689c-9.089-25.571-8.779-30.285-5.719-51.944c3.098-21.987,21.05-47.229,21.05-47.229
			L285.132,430.745z"/>
		<path fill="#CC6600" stroke="#000000" stroke-width="4" d="M284.775,430.993c0,0,10.328-27.886,15.51-34.347
			c5.187-6.461,17.017-15.373,31.223-27.304c14.206-11.933,39.771-13.637,59.092-13.637c19.321,0,45.451,10.227,57.953,20.455
			c12.503,10.228,30.682,46.591,33.524,64.207c2.838,17.613-7.554,46.08-7.554,46.08s-11.366,19.945-13.073,27.902
			c-1.704,7.953,0.571,29.543-13.065,44.031c-12.547,13.332-32.958,16.193-38.637,15.624c-5.679-0.568-66.574,32.417-109.332,17.749
			c-25.365-8.701-33.668-18.122-42.765-43.688c-9.09-25.572-8.777-30.286-5.719-51.945c3.099-21.986,21.051-47.229,21.051-47.229
			L284.775,430.993z"/>
		<path opacity="0.19" fill="#FFFFFF" d="M402.256,508.699c27.88-44.447,22.676-97.914-11.617-119.424
			c-18.703-11.729-48.996-15.099-67.752-2.947c-25.009,16.201-19.616,33.801-32.294,54.015c-9.513,15.167-24.41,28.88-28.3,43.058
			c-7.508,27.366,4.803,52.658,27.395,66.827C323.981,571.739,374.377,553.145,402.256,508.699z"/>
		<path opacity="0.19" fill="#FFFFFF" d="M170.594,425.08c-0.527-8.937,6.497-13.13,2.991-15.863
			c-6.924-5.402-39.009,0.166-78.138,17.885c-40.277,18.243-82.095,46.75-74.209,60.151c7.891,13.403,58.73,1.522,95.75-20.268
			C143.426,451.421,171.52,440.78,170.594,425.08z"/>
		<path fill="#D6833E" d="M177.516,431.657"/>
		<path fill="#5F6062" stroke="#000000" stroke-width="6" d="M164.102,990.117l96.025-175.411c0,0,15.341-26.989,56.252-29.796
			c40.91-2.812,125.569-6.183,125.569-6.183l84.664-2.253c0,0,33.52-4.497,24.995,18.555
			c-8.521,23.048-125.002,182.719-125.002,182.719L164.102,990.117z"/>
		<path fill="#B6B8BA" stroke="#000000" stroke-width="5" d="M550.891,780.456c0,0-2.84-16.477-17.613-21.588
			c-14.774-5.115-212.157,6.333-249.894,12.843c-5.081,0.876-24.129,6.031-48.979,53.066
			c-24.189,45.783-64.204,118.749-64.204,118.749s-48.866-31.251-32.388-20.452c16.477,10.796-62.503-38.067-62.503-38.067
			s-7.954-1.137,0,8.521c7.956,9.655,44.32,57.387,44.32,57.387l22.3,26.417c0,0,9.306,10.588,15.556,13.426
			c6.248,2.841,8.735,0.497,8.735,0.497s87.358-165.767,95.455-177.843c8.098-12.072,21.025-21.592,35.798-24.43
			c14.771-2.842,39.713-5.058,53.409-5.687c13.055-0.599,192.051-6.249,192.051-6.249L550.891,780.456z"/>
		<path fill="#E3EDFC" stroke="#000000" stroke-width="3" d="M271.336,682.726c0,3.766-2.923,6.819-6.529,6.819
			c-3.612,0-6.537-3.054-6.537-6.819c0-3.764,2.925-6.818,6.537-6.818C268.414,675.908,271.336,678.962,271.336,682.726z"/>
		<ellipse fill="#E3EDFC" stroke="#000000" stroke-width="3" cx="285.829" cy="657.728" rx="6.533" ry="6.817"/>
		<path fill="none" stroke="#000000" stroke-width="4" d="M149.353,519.406c0,0,44.713,20.704,60.62,25.818
			c15.911,5.114,38.015,10.128,38.015,10.128"/>
		<path fill="none" stroke="#000000" stroke-width="5" d="M392.945,624.062l48.283,25.145c0,0,13.638,6.247,28.979,27.271
			c10.872,14.896,11.251,14.393,52.842,81.82"/>
		<path fill="none" stroke="#000000" stroke-width="5" d="M32.28,565.545c0,0,52.693,81.384,60.646,93.886
			c7.954,12.502,28.408,51.708,28.408,51.708"/>
		<path d="M296,561.77l11.931,5.114l1.139,6.253C309.069,573.137,299.972,573.7,296,561.77z"/>
		<path fill="#FFFFFF" stroke="#000000" d="M3.293,524.846c0,0-3.482,9.248-1.239,19.373c2.244,10.126,13.042,20.649,23.391,22.66
			c10.347,2.011,59.62-2.307,85.236-18.174c25.619-15.869,40.644-30.321,43.393-34.733c2.757-4.415,2.458-9.181-2.876-13.167
			c-5.33-3.986-10.776-0.697-10.776-0.697s-8.509,6.287-13.859,9.989c-5.354,3.696-23.918,12.771-37.046,18.508
			c-6.868,2.999-28.831,6.749-35.819,7.757c-6.985,1.013-24.591,3.009-35.927-1.508C6.436,530.333,3.293,524.846,3.293,524.846z"/>
		<path fill="#B8D1ED" stroke="#000000" stroke-width="4" d="M5.145,522.934c0,0-4.336,7.66-2.63,17.885
			c1.704,10.228,11.931,21.307,22.159,23.865s59.66,0.852,86.082-13.637c26.421-14.488,42.188-28.125,45.17-32.385
			c2.983-4.262,4.262-10.229-0.851-14.489c-5.116-4.263-12.414-4.956-12.414-4.956s-10.558,7.471-16.098,10.88
			c-5.54,3.41-33.067,17.618-40.312,19.537s-22.905,4.914-29.937,5.552c-7.031,0.641-26.527,2.226-37.607-2.89
			C7.627,527.185,5.145,522.934,5.145,522.934z"/>
		<path stroke="#000000" d="M318.54,377.303c0,0,21.386-13.642,44.434-9.572c12.618,2.229,29.265,5.541,42.191,12.359
			c12.922,6.819,33.225,18.297,39.613,34.09c6.394,15.795,12.376,58.394,5.555,74.16c-6.817,15.766-19.009,33.657-19.009,33.657
			l-20.561,19.584c0,0-8.627,15.729-16.294,19.139c-7.674,3.409-27.701,6.391-27.701,6.391l-16.617,10.656
			c0,0-37.186,14.997-57.94,3.127c-12.821-7.333-26.354-24.256-30.232-30.701c-6.131-10.182-6.535-16.307-13.12-32.547
			c0,0,8.902,39.96,13.587,48.483c4.687,8.523,13.682,17.134,24.337,24.804c10.652,7.671,34.236,8.024,34.236,8.024l26.146-3.207
			c0,0,13.193-1.3,21.211-3.373c7.387-1.909,16.874-3.238,26.225-8.496c8.054-4.529,14.207-7.441,14.207-7.441
			s3.558-15.851,11.229-29.06c7.67-13.21,9.274-13.454,16.231-17.793c9.58-5.972,12.493-6.964,28.021-10.624l9.059-27.225
			l4.261-14.915c0,0,5.536-14.119,5.536-34.944c0-20.824-5.607-35.299-10.723-43.395c-5.11-8.098-12.218-15.771-22.089-25.641
			c-5.259-5.256-5.259-8.609-35.368-19.175c-11.376-3.994-37.927-4.263-47.305-2.983
			C358.286,351.967,328.768,366.649,318.54,377.303z"/>
		<line fill="none" stroke="#000000" stroke-width="3" x1="279.296" y1="624.205" x2="273.398" y2="642.599"/>
		<path fill="#C67832" stroke="#000000" stroke-width="5" d="M445.491,891.824c0,0-27.272-21.026-46.024-14.209
			c-18.75,6.821-27.272,11.934-31.252,14.775c-3.977,2.84-9.087,2.271-20.456,3.405c-11.363,1.144-28.407,1.707-24.996,10.801
			c3.408,9.089,10.793,11.359,10.793,11.359s-22.02-4.402-26.135-4.542c-4.122-0.141-29.065,5.754-18.186,24.998
			c1.53,2.702-5.39,2.21-8.698,5.15c-1.917,1.704-6.033,8.898,2.449,15.023c15.341,11.077,20.455,12.36,20.455,12.36
			s-3.834,3.403,0.854,8.095c4.688,4.685,12.783,12.784,32.668,17.327c104.296,23.833,202.845-83.525,214.776-98.865
			c11.934-15.341,3.979-35.227-2.838-44.884c-6.82-9.657-21.025-13.07-21.025-13.07l-30.112,42.048c0,0-13.636,8.521-31.817,10.794
			C447.765,894.662,445.491,891.824,445.491,891.824"/>
		<path fill="#CC6600" stroke="#000000" stroke-width="3" d="M445.188,890.477c0,0-27.272-19.321-46.021-12.503
			c-18.75,6.818-27.272,11.928-31.249,14.771c-3.981,2.844-9.093,2.271-20.458,3.409c-11.36,1.141-28.407,1.706-25.001,10.8
			c3.411,9.091,10.796,11.36,10.796,11.36s-22.02-4.402-26.136-4.543c-4.12-0.142-29.063,5.752-18.187,24.999
			c1.533,2.702-5.387,0.108-8.694,5.147c-1.41,2.146-6.034,8.901,2.448,15.023c15.341,11.081,20.455,12.358,20.455,12.358
			s-3.834,3.411,0.851,8.097c4.689,4.685,12.787,12.785,32.67,17.329c104.298,23.831,202.846-83.524,214.778-98.865
			c11.934-15.341,3.979-35.229-2.838-44.884c-6.82-9.659-21.024-13.072-21.024-13.072l-30.115,42.048
			c0,0-13.637,8.525-31.818,10.793C447.463,895.015,445.188,890.477,445.188,890.477"/>
		<path fill="#B8D1ED" stroke="#000000" stroke-width="4" d="M545.284,807.942c0,0,19.244,9.87,30.322,28.62
			c11.082,18.748,10.229,51.986,1.708,60.514c-8.525,8.522-12.782,10.932-19.603,11.931c-6.822,0.998-13.64-1.704-13.64-1.704
			l9.376-14.489c0,0,4.264-5.967,4.264-18.751c0-9.973-5.965-21.17-13.64-27.271c-7.674-6.105-17.618-7.388-17.618-7.388
			L545.284,807.942"/>
		<path d="M101.766,860.048c0,0,1.411,9.164,4.466,13.393C109.29,877.666,94.016,867.799,101.766,860.048z"/>
		<g>
			<path stroke="#000000" stroke-width="0.5" d="M352.948,536.342c0,0,5.973,6.588,4.771,10.812
				c-1.205,4.226-0.065,8.528,0.768,9.192c0.83,0.667,3.817,0.551,4.986-2.608C364.639,550.575,361.564,540.244,352.948,536.342z"/>
			<path d="M285.669,516.045c0,0,1.631,4.238,3.464,7.215c1.691,2.744,6.303,7.005,12.41,11.466
				c6.109,4.463,16.798,8.24,22.679,10.989c5.884,2.748,17.21,3.967,22.585,4.709c5.379,0.745,10.764,1.202,10.764,1.202
				l-0.063,1.987c0,0-6.575,1.208-14.509,0.383c-7.931-0.823-19.49-3.79-26.231-6.247c-4.664-1.701-11.458-4.955-18.174-9.399
				c-3.746-2.479-5.511-3.848-9.116-7.453C285.874,527.293,282.382,521.056,285.669,516.045z"/>
		</g>
		<g>
			<path fill="none" stroke="#000000" stroke-width="4" d="M241.07,380.735c0,0,1.83,5.015,6.371,8.019
				c3.571,2.358,9.554,3.329,12.673,4.739c1.951,0.886,6.223,7.55,12.716,9.883c7.392,2.65,19.977-2.09,19.977-2.09"/>
			<path d="M257.959,393.019c0,0,15.343-8.186,25.863-15.755c7.078-5.089,16.041-15.104,19.227-21.032
				c1.932-3.604,4.506-1.044,4.506-1.044s-2.469,6.232-8.202,13.056c-3.688,4.388-10.958,9.95-12.389,11.18
				C283.294,382.567,269.767,391.653,257.959,393.019z"/>
			<path d="M239.964,381.332c0,0,1.919-1.396,2.842-1.748c4.418-1.702,14.812-5.921,23.932-12.666
				c6.398-4.728,12.038-12.768,14.65-18.519c5.119-11.28,4.025-7.177,6.683-5.91C289.46,343.152,276.474,380.885,239.964,381.332z"
				/>
			<path d="M187.228,432.853c0,0,22.299,2.129,30.395-5.967c1.352-1.352,4.343-3.75,6.793-8.012s6.417-5.196,6.417-5.196
				S222.172,443.646,187.228,432.853z"/>
		</g>
		<path d="M390.605,437.44"/>
		<path fill="#E3EDFC" stroke="#000000" stroke-width="3" d="M166.223,964.406c0,5.877-3.693,10.648-8.247,10.648
			s-8.246-4.771-8.246-10.648c0-5.882,3.692-10.653,8.246-10.653S166.223,958.524,166.223,964.406z"/>
		<g opacity="0.19">
			<g>
				<path fill="#FFFFFF" d="M279.241,344.723c-2.075-4.037-23.295,6.949-36.25,11.563c-9.627,3.432-21.144,9.641-25.731,14.289
					c-2.038,1.537-4.097,3.235-6.137,5.08c-12.866,11.628-21.11,29.188-20.255,35.059c0.001,0.008,0.005,0.013,0.007,0.021
					c-0.664,5.64,0.858,10.572,4.603,13.022c6.37,4.159,16.702-0.436,23.082-10.264c4.079-6.288,5.538-13.188,4.399-18.438
					c3.306-3.179,6.065-6.555,7.735-9.901c1.947-3.897,3.859-6.984,5.566-9.497c5.004-1.021,10.088-2.613,14.229-4.755
					C262.831,364.525,281.311,348.756,279.241,344.723z"/>
			</g>
		</g>
		<path fill="none" stroke="#000000" d="M169.206,942.392"/>
		<line fill="none" stroke="#000000" stroke-width="9" x1="284.605" y1="431.378" x2="293.305" y2="435.794"/>
		<polygon points="430.375,496.05 462.766,519.629 452.671,522.678 421.708,511.958 		"/>
		<path d="M372.659,481.48c0,0-7.301-5.496-13.733-8.624c-6.431-3.129-13.863-4.007-13.863-4.007l4.756-11.489
			c0,0,9.307,1.49,14.238,3.489c4.936,1.994,14.431,9.469,14.431,9.469L372.659,481.48z"/>
		<path d="M308.861,412.133c0,0,10.191-13.327,24.337-12.213c14.146,1.118,21.517,5.451,23.768,10.188
			c2.253,4.743,7.708,12.301,4.064,15.78c-3.642,3.479-9.314,0.735-11.821-1.302C346.708,422.549,337.748,398.217,308.861,412.133z"
			/>
		<path d="M422.049,451.005c-8.834-6.425-28.681-1.16-32.681-6.43c-3.674-4.842,1.832-12.958,17.619-10.533
			c6.89,1.059,15.305,4.679,19.127,7.121c9.996,6.391,16.189,17.48,16.448,24.278c0.354,9.394,0.5,13.237,0.5,13.237
			S436.035,461.179,422.049,451.005z"/>
		<path stroke="#000000" d="M350.573,514.528c0,0-9.225-4.149-12.645-7.047c-3.426-2.895-7.396-9.506-4.922-14.726
			c2.483-5.219,5.796-8.1,5.796-8.1s-9.235,8.433-9.83,11.184C328.379,498.587,327.244,511.649,350.573,514.528z"/>
		<path d="M99.913,862.886"/>
		<path d="M134.487,684.215c0,0-34.067,54.463-38.753,90.99c-4.365,34.019-3.854,67.748-1.354,80.873
			c2.501,13.123,7.813,8.754,7.813,8.754s-7.183-55.24-1.014-87.724c4.686-24.688,6.433-32.796,19.244-59.392
			C127.946,702.1,134.487,684.215,134.487,684.215z"/>
		<path stroke="#000000" d="M289.119,939.251c-11.926-9.472,11.54,7.142,42.499,11.666c17.456,2.554,25.935,2.142,25.935,2.142
			s-2.812,2.141-9.374,2.141C341.615,955.2,303.493,950.671,289.119,939.251z"/>
		<path d="M298.8,969.056c-11.922-9.473,11.01,6.607,41.966,11.132c17.458,2.552,26.471,2.674,26.471,2.674
			s-2.814,2.142-9.376,2.142C351.297,985.003,313.173,980.476,298.8,969.056z"/>
		<path stroke="#000000" d="M328.732,917.864c-11.517-4.584,10.188,2.645,30.621-3.148c11.524-3.267,16.34-6.309,16.34-6.309
			s-0.648,2.775-4.528,4.851C367.283,915.334,342.613,923.392,328.732,917.864z"/>
	</g>
	<g id="Layer_6">
	</g>
</g>
<g id="Layer_5">
	<path opacity="0.17" d="M341.973,991.484c-0.621-0.344-6.828-1.911-9.218-4.22c-2.815-2.716-1.489-4.28,3.586-3.437
		c9.382,1.564,24.692,2.656,29.068,2.656c7.813,0,13.126-10.313-7.656-10.313c-5.741,0-60.766-6.628-49.157-18.236
		c1.01-1.012,1.775-1.809,5.881-4.103c0,0,32.276,8.798,44.373,7.185c21.088-2.812,60.932-12.344,60.932-12.344
		s45.934-17.025,73.122-34.839c24.208-15.862,56.091-51.092,56.091-51.092s7.26-0.338-0.104,25.819
		c-6.821,24.23-86.5,80-115.359,93.27c-19.573,9-46.246,12.934-58.121,12.934C375.411,994.765,347.598,994.605,341.973,991.484z"/>
</g>
<g id="Layer_14">
	<path fill="#FFFFFF" stroke="#000000" stroke-width="5" d="M342.493,470.299c-3.729,7.575-11.95,8.322-20.863,6.768
		c0,0-5.264-1.175-15.841-6.387c-10.579-5.21-15.895-9.249-15.895-9.249c-6.802-5.837-6.373-10.772-2.644-18.348l6.192-12.573
		c3.735-7.574,13.076-10.605,20.862-6.768l27.036,13.32c7.789,3.836,11.078,13.088,7.345,20.663L342.493,470.299z"/>
	<path fill="#FFFFFF" stroke="#000000" stroke-width="5" d="M366.246,481.101c-3.987,7.443,0.189,14.562,6.642,20.904
		c0,0,4.018,3.597,14.413,9.163c10.396,5.57,16.771,7.541,16.771,7.541c8.707,2.133,12.471-1.086,16.461-8.529l6.617-12.355
		c3.986-7.443,1.016-16.803-6.64-20.901l-26.564-14.231c-7.653-4.102-17.092-1.39-21.081,6.056L366.246,481.101z"/>
</g>
<g id="Layer_4">
	<path d="M321.456,453.155c-2.256,6.202-7.144,10.117-10.915,8.745c-3.769-1.374-4.995-7.515-2.735-13.717
		c2.258-6.203,7.146-10.118,10.917-8.745C322.493,440.811,323.717,446.951,321.456,453.155z"/>
	<path d="M400.478,492.04c-2.259,6.202-7.146,10.116-10.918,8.744c-3.768-1.374-4.993-7.515-2.734-13.717
		c2.257-6.203,7.146-10.118,10.916-8.744C401.512,479.695,402.737,485.836,400.478,492.04z"/>
	<path fill="#FFFFFF" d="M318.382,446.852c-0.816,2.246-2.588,3.663-3.955,3.167c-1.364-0.498-1.808-2.722-0.987-4.969
		c0.819-2.245,2.588-3.664,3.953-3.167C318.757,442.381,319.202,444.604,318.382,446.852z"/>
	
		<ellipse transform="matrix(0.9396 0.3422 -0.3422 0.9396 189.5569 -105.7653)" fill="#FFFFFF" cx="394.56" cy="484.398" rx="2.631" ry="4.328"/>
</g>
</svg>
